<svg xmlns="http://www.w3.org/2000/svg" viewBox="0 0 64 64" fill="none">
  <defs>
    <linearGradient id="bg" x1="0" y1="0" x2="64" y2="64" gradientUnits="userSpaceOnUse">
      <stop stop-color="#0f766e"/>
      <stop offset="1" stop-color="#14b8a6"/>
    </linearGradient>
  </defs>
  <rect width="64" height="64" rx="16" fill="url(#bg)"/>
  <path d="M20 38c0-8 6-18 12-18s12 10 12 18" stroke="white" stroke-width="3" fill="none" stroke-linecap="round"/>
  <circle cx="27" cy="28" r="2.5" fill="white"/>
  <circle cx="37" cy="28" r="2.5" fill="white"/>
  <ellipse cx="32" cy="34" rx="5" ry="3" fill="white" opacity="0.3"/>
  <path d="M23 22c-3-6-1-10 2-12" stroke="white" stroke-width="2.5" stroke-linecap="round"/>
  <path d="M41 22c3-6 1-10-2-12" stroke="white" stroke-width="2.5" stroke-linecap="round"/>
  <rect x="23" y="38" width="3" height="10" rx="1.5" fill="white" opacity="0.5"/>
  <rect x="30" y="38" width="3" height="10" rx="1.5" fill="white" opacity="0.5"/>
  <rect x="38" y="38" width="3" height="10" rx="1.5" fill="white" opacity="0.5"/>
  <path d="M44 35c5-3 8 0 6 5" stroke="white" stroke-width="1.5" fill="none" stroke-linecap="round"/>
</svg>
